<svg version="1.2" xmlns="http://www.w3.org/2000/svg" viewBox="0 0 456 456" width="456" height="456"><style>.a{fill:#e60f0f}.b{fill:#0600ff}.c{fill:#10d7e9}.d{fill:#a826cd}.e{fill:#1fd1a9}</style><path class="a" d="m176 239v-47.4h13.6l17.2 32.5v-32.5h11.6v47.4h-13.6l-17.2-32.5v32.5z"/><path class="b" d="m227 235v-40.1h10.4v40.1z"/><path class="c" d="m280.7 235l-3-8.6h-19.1l-3 8.6h-12.3l17.6-47.4h14.5l17.6 47.4zm-12.5-36.3l-6.6 18.9h13z"/><path class="d" d="m210.6 148.9v-9.3h39.9v7.4l-25.4 30.8h26.1v9.2h-41.3v-7.4l25.4-30.7z"/><path class="e" d="m209 295v-47.4h15.5l10.8 25.4 10.9-25.4h15.5v47.4h-11.6v-34.7l-10.9 25.6h-7.7l-10.9-25.6v34.7z"/></svg>